<?xml version="1.0" encoding="UTF-8" standalone="no"?>
<!DOCTYPE svg PUBLIC "-//W3C//DTD SVG 1.1//EN" "http://www.w3.org/Graphics/SVG/1.1/DTD/svg11.dtd">
<svg width="100%" height="100%" viewBox="0 0 1200 1200" version="1.1" xmlns="http://www.w3.org/2000/svg" xmlns:xlink="http://www.w3.org/1999/xlink" xml:space="preserve" xmlns:serif="http://www.serif.com/" style="fill-rule:evenodd;clip-rule:evenodd;stroke-linejoin:round;stroke-miterlimit:2;">
    <g id="Layer1" transform="matrix(1.26222,0,0,1.26222,95.1116,221.334)">
        <g transform="matrix(1.75781,0,0,1.75781,-296.094,-273.047)">
            <circle cx="396" cy="326" r="256" style="fill:rgb(235,235,235);"/>
        </g>
        <g transform="matrix(1.65625,-0.015625,0.015625,1.65625,-260.969,-233.75)">
            <circle cx="396" cy="326" r="256" style="fill:url(#_Linear1);"/>
        </g>
        <g transform="matrix(1.65625,-0.015625,0.015625,1.65625,-260.969,-233.75)">
            <circle cx="396" cy="326" r="256" style="fill:url(#_Linear2);"/>
        </g>
        <g transform="matrix(1.5,0,0,1.5,-57.5,-640)">
            <path d="M325,823.333C325,832.538 317.538,840 308.333,840L261.667,840C257.246,840 253.007,838.244 249.882,835.118C246.756,831.993 245,827.754 245,823.333L245,536.667C245,532.246 243.244,528.007 240.118,524.882C236.993,521.756 232.754,520 228.333,520L117.23,520C110.999,520 105.288,516.524 102.425,510.989C99.563,505.454 100.028,498.785 103.629,493.7C115.25,477.294 129.348,457.391 136.685,447.033C139.81,442.622 144.88,440 150.285,440L308.333,440C317.538,440 325,447.462 325,456.667L325,823.333ZM454.929,760C460.988,760 466.569,763.288 469.507,768.587C472.444,773.886 472.274,780.362 469.063,785.5C458.972,801.644 446.605,821.433 439.896,832.167C436.85,837.04 431.509,840 425.763,840L371.667,840C362.462,840 355,832.538 355,823.333L355,776.667C355,767.462 362.462,760 371.667,760L454.929,760ZM454.929,600C460.988,600 466.569,603.288 469.507,608.587C472.444,613.886 472.274,620.362 469.063,625.5C458.972,641.644 446.605,661.433 439.896,672.167C436.85,677.04 431.509,680 425.763,680L371.667,680C362.462,680 355,672.538 355,663.333L355,616.667C355,607.462 362.462,600 371.667,600L454.929,600ZM454.929,440C460.988,440 466.569,443.288 469.507,448.587C472.444,453.886 472.274,460.362 469.063,465.5C458.972,481.644 446.605,501.433 439.896,512.167C436.85,517.04 431.509,520 425.763,520L371.667,520C362.462,520 355,512.538 355,503.333L355,456.667C355,447.462 362.462,440 371.667,440L454.929,440Z" style="fill:white;fill-opacity:0.6;"/>
        </g>
    </g>
    <defs>
        <linearGradient id="_Linear1" x1="0" y1="0" x2="1" y2="0" gradientUnits="userSpaceOnUse" gradientTransform="matrix(471.709,-311.167,311.167,471.709,140,497.83)"><stop offset="0" style="stop-color:rgb(196,173,255);stop-opacity:1"/><stop offset="0.22" style="stop-color:rgb(128,210,166);stop-opacity:1"/><stop offset="1" style="stop-color:rgb(78,171,231);stop-opacity:1"/></linearGradient>
        <linearGradient id="_Linear2" x1="0" y1="0" x2="1" y2="0" gradientUnits="userSpaceOnUse" gradientTransform="matrix(458.634,-357.937,357.937,458.634,194.95,517.311)"><stop offset="0" style="stop-color:rgb(196,173,255);stop-opacity:1"/><stop offset="0.5" style="stop-color:rgb(143,198,233);stop-opacity:1"/><stop offset="1" style="stop-color:rgb(128,210,166);stop-opacity:1"/></linearGradient>
    </defs>
</svg>
